<svg xmlns="http://www.w3.org/2000/svg" fill="none" viewBox="0 0 638 322">
  <path
    fill="#3555A6"
    d="M377.355.029 380.154 0c.048 11.27 9.049 21.017 20.388 21.525 1.687-.393 1.495 1.668 1.016 2.55-6.834.057-13.525 3.526-17.407 9.171-2.684 3.747-3.949 8.232-3.987 12.813-.93.03-1.87.03-2.799-.01.278-11.93-9.653-22.051-21.586-22.013-.039-.815-.029-1.62.019-2.415 10.409.02 19.65-7.82 21.27-18.104.153-1.16.249-2.319.287-3.488ZM393.908 43.395c9.01 1.026 16.324 7.62 20.858 15.114 5.454 9.085 11.445 18.937 21.088 24.074 10.227 5.482 23.474 5.022 34.746 4.59a31.906 31.906 0 0 1 16.823 2.224c7.793 3.297 14.109 9.622 19.065 16.34 7.333 9.987 12.681 21.842 17.388 33.256 3.556 8.443 6.297 16.541 11.349 24.256 4.716 7.303 11.607 14.788 20.646 16.111 9.049 1.13 15.787-3.949 22.095-9.642-5.1 6.814-12.461 12.929-21.107 14.213-5.723.719-11.34-1.006-16.094-4.15-6.921-4.504-12.432-11.644-16.794-18.563-5.425-9.421-9.834-19.398-15.441-28.732-5.771-9.718-12.931-20.04-22.181-26.739-6.01-4.361-13.036-7.082-20.56-6.718-9.969.632-20.781 3.843-30.673 2.827-7.774-.748-14.235-5.204-18.903-11.28-5.137-6.881-10.39-14.797-17.531-19.838-2.703-1.783-5.493-3.336-8.809-2.147-1.63-7.265-3.758-14.567-5.253-21.841 1.63-3.355 6.039-3.652 9.288-3.355ZM377.288 48.839a12.513 12.513 0 0 1 2.99.048c1.659 6.929 3.355 13.867 4.946 20.816l-.115.852c-4.246 2.511-9.192 2.598-13.151-.44 1.821-7.073 3.556-14.184 5.33-21.276ZM369.715 78.424c-.22 1.293-.45 2.558-.949 3.785-4.648 12.996-12.106 25.301-19.659 36.811-10.429 15.689-22.219 30.716-34.335 45.13-18.03 21.333-37.2 41.708-56.956 61.451-8.157-2.109-16.438-2.415-24.816-1.697 13.4-10.34 26.427-21.208 38.715-32.853 20.781-20.135 40.776-41.095 59.707-62.974 13.525-15.852 26.935-32.163 38.293-49.653ZM377.796 79.65c.325 2.492.421 4.888.277 7.39-.479 24.457-2.683 49.058-6.125 73.267-6.815 40.28-11.876 80.772-16.678 121.33-15.049 4.063-29.475 11.021-42.75 19.139 20.081-40.932 35.944-84.04 46.977-128.279 3.652-15.305 6.71-30.763 9.787-46.193 2.875-15.526 6.192-31.023 8.512-46.654ZM386.748 80.398l.345.719c4.007 12.42 8.291 24.697 13.362 36.753 16.094 38.489 36.779 75.328 62.132 108.488 4.726 6.124 9.518 12.191 14.301 18.276 39.588 49.769 16.323 21.086 56.524 70.366-8.924-3.968-18.864-6.747-28.67-6.795-19.745-24.985-37.02-49.799-56.242-81.847-21.108-35.192-32.507-60.454-44.374-90.25-7.17-18.305-13.199-36.495-17.378-55.71ZM388.982 133.415c1.294 9.526 3.45 18.976 5.406 28.387 4.006 18.41 8.579 36.686 13.812 54.79 8.704 29.758 19.056 59.726 33.271 87.337-11.57-8.022-24.376-14.069-37.44-19.187-4.18-21.554-6.528-43.51-9.25-65.294-2.502-23.02-4.362-46.059-5.426-69.194-.124-5.559-.977-11.309-.373-16.839Z"
  />
  <path
    fill="#3555A6"
    d="M428.809 149.036c17.272 18.286 35.494 35.278 54.377 51.887 47.975 41.766 99.774 79.372 154.669 111.535-6.336 2.051-12.365 4.869-17.762 8.788-52.719-30.399-103.665-67.316-145.495-111.727-17.072-18.4-33.654-38.44-45.789-60.483ZM14.957 164l1.428.393c.096 7.964 6.576 14.184 14.474 14.366l.01 1.476c-7.937.201-14.56 6.546-14.455 14.596l-1.543.469c-.786-2.118-.566-4.437-1.707-6.516-2.329-5.214-7.505-8.348-13.15-8.53-.02-.498-.02-1.006.009-1.514 6.499-.144 12.25-4.39 13.937-10.715.412-1.294.172-2.952.997-4.025ZM502.618 167l1.792.01c.096 7.877 6.489 14.452 14.426 14.481.096.498.163 1.006.201 1.523-8.176.288-14.579 6.546-14.608 14.807-.604.019-1.217.019-1.821 0-.019-8.251-6.432-14.529-14.608-14.807.038-.517.115-1.025.221-1.523 7.917-.02 14.33-6.623 14.397-14.491ZM194.4 219.034c.058 8.031 6.557 14.347 14.541 14.51 0 .508-.019 1.016-.067 1.514-8.032.086-14.579 6.699-14.474 14.74-.623.029-1.236.029-1.84.009.029-8.098-6.412-14.605-14.493-14.759l-.067-1.495c8.032-.23 14.416-6.459 14.57-14.548a23.689 23.689 0 0 1 1.83.029ZM146.711 239l1.792.01c.096 7.877 6.489 14.452 14.426 14.481.096.498.163 1.006.201 1.523-8.176.288-14.579 6.546-14.608 14.807-.604.019-1.217.019-1.821 0-.019-8.251-6.432-14.529-14.608-14.807.038-.517.115-1.025.221-1.523 7.917-.02 14.33-6.623 14.397-14.491ZM102.4 198.034c.058 8.031 6.557 14.347 14.541 14.51 0 .508-.019 1.016-.067 1.514-8.032.086-14.579 6.699-14.474 14.74-.623.029-1.236.029-1.84.009.029-8.098-6.413-14.605-14.493-14.759L86 212.553c8.032-.23 14.416-6.459 14.57-14.548a23.689 23.689 0 0 1 1.83.029ZM588.4 180.034c.058 8.031 6.557 14.347 14.541 14.51 0 .508-.019 1.016-.067 1.514-8.032.086-14.579 6.699-14.474 14.74-.623.029-1.236.029-1.84.009.029-8.098-6.412-14.605-14.493-14.759l-.067-1.495c8.032-.23 14.416-6.459 14.57-14.548a23.689 23.689 0 0 1 1.83.029ZM319.4 190.034c.058 8.031 6.557 14.347 14.541 14.51 0 .508-.019 1.016-.067 1.514-8.032.086-14.579 6.699-14.474 14.74-.623.029-1.236.029-1.84.009.029-8.098-6.412-14.605-14.493-14.759l-.067-1.495c8.032-.23 14.416-6.459 14.57-14.548a23.689 23.689 0 0 1 1.83.029ZM445.4 118.034c.058 8.031 6.557 14.347 14.541 14.51 0 .508-.019 1.016-.067 1.514-8.032.086-14.579 6.699-14.474 14.74-.623.029-1.236.029-1.84.009.029-8.098-6.412-14.605-14.493-14.759l-.067-1.495c8.032-.23 14.416-6.459 14.57-14.548a23.689 23.689 0 0 1 1.83.029ZM601.957 235l1.428.393c.096 7.964 6.576 14.184 14.474 14.366l.01 1.476c-7.937.201-14.561 6.546-14.455 14.596l-1.543.469c-.786-2.118-.566-4.437-1.707-6.516-2.329-5.214-7.505-8.348-13.151-8.53a15.95 15.95 0 0 1 .01-1.514c6.499-.144 12.25-4.39 13.937-10.715.412-1.294.173-2.952.997-4.025ZM41.957 219l1.428.393c.096 7.964 6.576 14.184 14.474 14.366l.01 1.476c-7.937.201-14.56 6.546-14.455 14.596l-1.543.469c-.786-2.118-.566-4.437-1.707-6.516-2.329-5.214-7.505-8.348-13.15-8.53-.02-.498-.02-1.006.009-1.514 6.499-.144 12.25-4.39 13.937-10.715.412-1.294.172-2.952.997-4.025ZM59.752 199l.74.201c.05 4.071 3.41 7.25 7.503 7.343l.005.755c-4.114.103-7.547 3.346-7.492 7.461l-.8.24c-.408-1.083-.293-2.268-.884-3.331-1.208-2.665-3.89-4.267-6.817-4.36-.01-.255-.01-.515.005-.774 3.368-.074 6.35-2.244 7.224-5.477.214-.662.09-1.509.517-2.058ZM119.753 234l.74.201c.05 4.071 3.408 7.25 7.502 7.343l.005.755c-4.114.103-7.547 3.346-7.492 7.461l-.8.24c-.408-1.083-.293-2.268-.885-3.331-1.207-2.665-3.89-4.267-6.816-4.36-.01-.255-.01-.515.005-.774 3.368-.074 6.349-2.244 7.224-5.477.213-.662.089-1.509.517-2.058ZM333.753 164l.74.201c.05 4.071 3.408 7.25 7.502 7.343l.005.755c-4.114.103-7.547 3.346-7.492 7.461l-.8.24c-.408-1.083-.293-2.268-.885-3.331-1.207-2.665-3.89-4.267-6.816-4.36-.01-.255-.01-.515.005-.774 3.368-.074 6.349-2.244 7.224-5.477.213-.662.089-1.509.517-2.058ZM568.753 211l.74.201c.05 4.071 3.408 7.25 7.502 7.343l.005.755c-4.114.103-7.547 3.346-7.492 7.461l-.8.24c-.408-1.083-.293-2.268-.885-3.331-1.207-2.665-3.89-4.267-6.816-4.36-.01-.255-.01-.515.005-.774 3.368-.074 6.349-2.244 7.224-5.477.213-.662.089-1.509.517-2.058ZM538.753 188l.74.201c.05 4.071 3.408 7.25 7.502 7.343l.005.755c-4.114.103-7.547 3.346-7.492 7.461l-.8.24c-.408-1.083-.293-2.268-.885-3.331-1.207-2.665-3.89-4.267-6.816-4.36-.01-.255-.01-.515.005-.774 3.368-.074 6.349-2.244 7.224-5.477.213-.662.089-1.509.517-2.058ZM467.753 156l.74.201c.05 4.071 3.408 7.25 7.502 7.343l.005.755c-4.114.103-7.547 3.346-7.492 7.461l-.8.24c-.408-1.083-.293-2.268-.885-3.331-1.207-2.665-3.89-4.267-6.816-4.36-.01-.255-.01-.515.005-.774 3.368-.074 6.349-2.244 7.224-5.477.213-.662.089-1.509.517-2.058ZM164.753 211l.74.201c.05 4.071 3.408 7.25 7.502 7.343l.005.755c-4.114.103-7.547 3.346-7.492 7.461l-.8.24c-.408-1.083-.293-2.268-.885-3.331-1.207-2.665-3.89-4.267-6.816-4.36-.01-.255-.01-.515.005-.774 3.368-.074 6.349-2.244 7.224-5.477.213-.662.089-1.509.517-2.058ZM283.753 219l.74.201c.05 4.071 3.408 7.25 7.502 7.343l.005.755c-4.114.103-7.547 3.346-7.492 7.461l-.8.24c-.408-1.083-.293-2.268-.885-3.331-1.207-2.665-3.89-4.267-6.816-4.36-.01-.255-.01-.515.005-.774 3.368-.074 6.349-2.244 7.224-5.477.213-.662.089-1.509.517-2.058ZM246.753 234l.74.201c.05 4.071 3.408 7.25 7.502 7.343l.005.755c-4.114.103-7.547 3.346-7.492 7.461l-.8.24c-.408-1.083-.293-2.268-.885-3.331-1.207-2.665-3.89-4.267-6.816-4.36-.01-.255-.01-.515.005-.774 3.368-.074 6.349-2.244 7.224-5.477.213-.662.089-1.509.517-2.058Z"
  />
</svg>
