<svg xmlns="http://www.w3.org/2000/svg" fill="#FFF" viewBox="0 0 107 89">
  <path
    d="M2.66 3.09H.27V1.22H14.4v4.87h-2.21v-3h-7l-.06 7.34h6.57v1.89H5.17l-.1 7.92h7.3l.18-3.26h2.21l-.18 5.11H.27v-1.85h2.27m24.05-5.15c-3.65 0-7.32 0-7.32 2.9a2.64 2.64 0 0 0 2.9 2.66c1.67 0 4.42-.93 4.42-5.56Zm-7-3.79h-2.17V7.6a14.45 14.45 0 0 1 5.4-1.2c4 0 6.09 1.47 6.09 5.56 0 1.34-.17 5.55-.17 8.33h2.21v1.8h-4.42v-.6c.026-.91.123-1.816.29-2.71-.93 2.48-2.45 3.7-5.17 3.7-1.76 0-4.78-.66-4.78-4.42 0-4.3 4.6-4.72 9.77-4.72v-1.1c0-2.9-1.11-4-3.53-4a9.49 9.49 0 0 0-3.43.63m23.84 2.11h-2.21l-.12-2.18a5.24 5.24 0 0 0-2.72-.57c-1.55 0-3.55.51-3.55 2.36 0 1.68 1.49 2.18 3.76 2.57 3.92.66 5.56 1.85 5.56 4.39 0 2.75-1.85 4.93-6.3 4.93a15.34 15.34 0 0 1-5.29-.93l-.12-3.94h2.21l.12 2.3a9.321 9.321 0 0 0 3.49.69c1.62 0 3.56-.69 3.56-2.57 0-1.52-1.58-2.06-3.26-2.42-4.12-.9-6.18-1.61-6.18-4.63 0-2.48 1.64-4.63 6.06-4.63a15.86 15.86 0 0 1 4.87.93m2.36-.57h2.48l.12-3.76 2.45-.15-.12 3.91h4.84v1.88h-4.87c-.06 2.57-.12 5.17-.12 7.74 0 2.21 0 4.12 2.36 4.12a8.371 8.371 0 0 0 3-.63l-.09 1.94a8.757 8.757 0 0 1-3.47.72c-4.3 0-4.3-3.08-4.3-5s.09-6.6.12-8.84h-2.4m23.95 11.89c3.14 0 4.68-2.57 4.68-5.76s-1.54-5.75-4.68-5.75c-3.14 0-4.64 2.56-4.64 5.75s1.54 5.76 4.67 5.76m0-13.45c4.48 0 7.13 3.08 7.13 7.29 0 4.67-2.65 8.09-7.13 8.09s-7.12-3.07-7.12-7.29c0-4.67 2.65-8.09 7.12-8.09Zm19.18-4.82a7.78 7.78 0 0 0-2.39-.34c-3.48 0-3.85 1.85-3.85 4.3v1.2h3.79v1.79h-3.79l-.06 11.12h2.45v1.76h-6.78v-1.76h2V9.21h-2.37V7.42h2.42V6c0-4.31 2.23-6 5.87-6 .94.017 1.875.135 2.79.35M2.66 29.81H.27v-1.88H14.4v4.83h-2.21v-3h-7l-.06 7.34h6.57v1.99H5.17l-.1 7.86h7.3l.18-3.25h2.21l-.18 5.13H.27v-1.88h2.27m24.35 0h2c0-2.39.12-4.9.12-7.38 0-1.49-.06-4.48-3.49-4.48-2.18 0-4.57 1.32-4.57 5.5l-.06 6.36h2.18v1.88h-6.66v-1.88h2l.12-11.65h-2.46v-1.88H21a16.47 16.47 0 0 1-.09 1.85l-.24 1.56h.06a5.66 5.66 0 0 1 5.41-3.74c4.25 0 5.29 2.87 5.29 5.8 0 2.63-.12 5.7-.12 8.09h2.27v1.88h-6.69m9.52-10.18a3.87 3.87 0 0 0 4 3.79c2.63 0 4.3-1.73 4.3-3.88a3.77 3.77 0 0 0-4.09-3.65c-2.42 0-4.18 1.47-4.18 3.74m2.89 10.51c-.3 0-3.37.87-3.37 2.9 0 2.39 3.61 2.72 5.14 2.72 1.91 0 5-.57 5-3 0-1.37-1.25-1.76-2.63-2l-4.14-.62Zm9.53-13.89h-1.37c-.42 0-1.65-.12-2.06-.15a4.85 4.85 0 0 1 1.46 3.71c0 3.43-2.9 5.49-6.51 5.49-.63 0-2.78.36-2.78 1.46 0 .78.72 1 2.66 1.29l4.12.69c2.39.39 4.15 1.25 4.15 3.73 0 3.55-3.7 5.17-7.55 5.17-3.85 0-7.35-1.2-7.35-4.21 0-2.33 1.88-3.35 3.88-3.8v-.06c-1.22-.27-2.36-1-2.36-2.39 0-1.39 1.56-2 2.81-2.33v-.05a4.94 4.94 0 0 1-3.89-5.2c0-3.2 2.64-5.56 6.4-5.56.897.022 1.79.143 2.66.36h5.73"
  />
  <path
    d="M51.44 27.75h-3v-1.88h5.43l-.1 21.08h2.45v1.88h-7.15v-1.88h2.21m15.69-5.2c-3.64 0-7.31 0-7.31 2.9a2.63 2.63 0 0 0 2.89 2.66c1.68 0 4.42-.93 4.42-5.56Zm-7-3.79h-2.2v-3.7a14.448 14.448 0 0 1 5.4-1.2c4 0 6.09 1.47 6.09 5.56 0 1.34-.18 5.55-.18 8.33h2.21v1.88h-4.38v-.62c.023-.913.124-1.823.3-2.72h-.06c-.92 2.48-2.45 3.7-5.16 3.7-1.77 0-4.78-.66-4.78-4.42 0-4.3 4.6-4.72 9.76-4.72v-1.1c0-2.9-1.1-4-3.52-4a9.507 9.507 0 0 0-3.44.62m23.22 11.38h2c0-2.39.12-4.9.12-7.38 0-1.49-.06-4.48-3.5-4.48-2.18 0-4.57 1.32-4.57 5.5l-.06 6.36h2.24v1.88h-6.72v-1.88h2l.11-11.65h-2.49v-1.88h4.92c.005.618-.025 1.236-.09 1.85l-.23 1.56a5.67 5.67 0 0 1 5.52-3.74c4.24 0 5.29 2.87 5.29 5.8 0 2.63-.12 5.7-.12 8.09h2.27v1.88h-6.69m18.57-13.08a6 6 0 0 0-3-.69c-3.64 0-5.79 2.36-5.79 6.7 0 2.86 1.34 5.37 4.33 5.37 3.73 0 4.48-3.46 4.48-6.48l-.02-4.9Zm2.39 11.17h2.3v1.88h-4.75c0-1.04.1-2.079.3-3.1l-.06-.06a5.231 5.231 0 0 1-5.17 3.52c-3.52 0-6.39-2.48-6.39-7.44 0-4.96 2.84-8.66 8.18-8.66a6.84 6.84 0 0 1 3.2.69l.06-6h-3.08v-1.91h5.53M91.32 73.89h5.22c4.86 0 5.88-2.35 5.88-4.31 0-2.77-1.85-4.12-5.65-4.12h-5.45v8.43Zm3.75 14.06H83.79v-3.37l3.1-.46V65.09l-3.1-.46V61.3h12.28c9 0 10.88 4.52 10.88 8.32 0 5.35-4 8.42-11 8.42h-4.6v6l3.75.47M69.3 60.52c-7.46 0-13.14 5.68-13.57 13.34A20.681 20.681 0 0 1 61 78.09a11.8 11.8 0 0 1-.47-3.3c0-4.76 2.71-9.57 8.77-9.57s8.77 4.76 8.77 9.52-2.71 9.42-8.77 9.42a9.67 9.67 0 0 1-2.66-.36 12.31 12.31 0 0 0 6.9 3c1.13.12 1.9.19 2.42.22a13.71 13.71 0 0 0 7-12.28c0-8.26-5.72-14.26-13.61-14.26M48.63 81.9a14.94 14.94 0 0 0-5.7.82 8.66 8.66 0 0 1-5 1.44c-6.06 0-8.78-4.73-8.78-9.42 0-4.69 2.72-9.57 8.78-9.57 5.21 0 7.94 3.55 8.6 7.58a16.56 16.56 0 0 1 3.2-.33 14.45 14.45 0 0 1 1.65.11c-1-7.08-6.3-12-13.45-12-7.76 0-13.61 6.13-13.61 14.26 0 8 5.85 14 13.61 14a13.25 13.25 0 0 0 11.77-6.78c-.35 0-.7-.06-1.06-.06"
  />
  <path
    d="M48.63 80.68c3.91 0 7.41 1.77 10.8 3.49 3.39 1.72 6.79 3.43 10.58 3.43.37 0 .74 0 1.11-.05-3.86-.9-6.56-3.84-9.19-6.71-3.24-3.54-6.59-7.2-12.21-7.2-1.05-.01-2.095.121-3.11.39a11 11 0 0 1-2.06 7.15 12.253 12.253 0 0 1 4.08-.5Zm-34.48 8.13C5.82 88.81 0 83.02 0 74.74c0-8.28 5.82-14.08 14.15-14.08a16.269 16.269 0 0 1 9.27 2.81l.91.63-2.45 3.68-.93-.6a12.5 12.5 0 0 0-6.52-1.9c-4.4 0-9.54 2.48-9.54 9.46s5.14 9.45 9.54 9.45a12.5 12.5 0 0 0 6.52-1.9l.93-.6.65.91 1.8 2.76-.91.64a16.27 16.27 0 0 1-9.27 2.81Z"
  />
</svg>
