<svg width="260" height="260" viewBox="0 0 260 260" fill="none" xmlns="http://www.w3.org/2000/svg">
<g clip-path="url(#clip0_23009_240)">
<rect width="260" height="260" fill="#020A4D"/>
<g style="mix-blend-mode:screen" filter="url(#filter0_f_23009_240)">
<circle cx="250" cy="93" r="71" fill="#864E99"/>
</g>
<g style="mix-blend-mode:screen" filter="url(#filter1_f_23009_240)">
<circle cx="50" cy="235" r="71" fill="#864E99"/>
</g>
<g style="mix-blend-mode:screen" filter="url(#filter2_f_23009_240)">
<circle cx="80" cy="80" r="87" fill="#031473"/>
</g>
<g style="mix-blend-mode:screen" filter="url(#filter3_f_23009_240)">
<circle cx="167" cy="164" r="87" fill="#3555A6"/>
</g>
<g style="mix-blend-mode:screen" filter="url(#filter4_f_23009_240)">
<path fill-rule="evenodd" clip-rule="evenodd" d="M100 55C101.63 55.0003 103.215 55.5315 104.516 56.513C105.817 57.4945 106.762 58.873 107.21 60.44L115.34 88.9C117.09 95.0292 120.374 100.611 124.882 105.118C129.389 109.626 134.971 112.91 141.1 114.66L169.56 122.79C171.126 123.239 172.503 124.185 173.484 125.486C174.464 126.786 174.995 128.371 174.995 130C174.995 131.629 174.464 133.214 173.484 134.514C172.503 135.815 171.126 136.761 169.56 137.21L141.1 145.34C134.971 147.09 129.389 150.374 124.882 154.882C120.374 159.389 117.09 164.971 115.34 171.1L107.21 199.56C106.761 201.126 105.815 202.503 104.514 203.484C103.214 204.464 101.629 204.995 100 204.995C98.371 204.995 96.7864 204.464 95.4856 203.484C94.1848 202.503 93.2386 201.126 92.79 199.56L84.66 171.1C82.9095 164.971 79.6255 159.389 75.1182 154.882C70.611 150.374 65.0291 147.09 58.9 145.34L30.44 137.21C28.874 136.761 27.4967 135.815 26.5162 134.514C25.5357 133.214 25.0054 131.629 25.0054 130C25.0054 128.371 25.5357 126.786 26.5162 125.486C27.4967 124.185 28.874 123.239 30.44 122.79L58.9 114.66C65.0291 112.91 70.611 109.626 75.1182 105.118C79.6255 100.611 82.9095 95.0292 84.66 88.9L92.79 60.44C93.2376 58.873 94.1834 57.4945 95.4843 56.513C96.7851 55.5315 98.3703 55.0003 100 55ZM190 25C191.673 24.9991 193.299 25.5576 194.618 26.5869C195.937 27.6161 196.874 29.0569 197.28 30.68L199.86 41.04C202.22 50.44 209.56 57.78 218.96 60.14L229.32 62.72C230.946 63.1228 232.391 64.0586 233.423 65.378C234.456 66.6974 235.017 68.3246 235.017 70C235.017 71.6754 234.456 73.3026 233.423 74.622C232.391 75.9414 230.946 76.8772 229.32 77.28L218.96 79.86C209.56 82.22 202.22 89.56 199.86 98.96L197.28 109.32C196.877 110.946 195.941 112.391 194.622 113.423C193.303 114.456 191.675 115.017 190 115.017C188.325 115.017 186.697 114.456 185.378 113.423C184.059 112.391 183.123 110.946 182.72 109.32L180.14 98.96C178.986 94.3443 176.599 90.129 173.235 86.7648C169.871 83.4005 165.656 81.0139 161.04 79.86L150.68 77.28C149.054 76.8772 147.609 75.9414 146.577 74.622C145.544 73.3026 144.983 71.6754 144.983 70C144.983 68.3246 145.544 66.6974 146.577 65.378C147.609 64.0586 149.054 63.1228 150.68 62.72L161.04 60.14C165.656 58.9861 169.871 56.5995 173.235 53.2352C176.599 49.871 178.986 45.6557 180.14 41.04L182.72 30.68C183.126 29.0569 184.063 27.6161 185.382 26.5869C186.701 25.5576 188.327 24.9991 190 25ZM175 160C176.575 159.999 178.111 160.494 179.389 161.415C180.667 162.336 181.622 163.636 182.12 165.13L186.06 176.96C187.56 181.43 191.06 184.95 195.54 186.44L207.37 190.39C208.86 190.89 210.155 191.845 211.072 193.121C211.989 194.397 212.483 195.929 212.483 197.5C212.483 199.071 211.989 200.603 211.072 201.879C210.155 203.155 208.86 204.11 207.37 204.61L195.54 208.56C191.07 210.06 187.55 213.56 186.06 218.04L182.11 229.87C181.61 231.36 180.654 232.655 179.379 233.572C178.103 234.489 176.571 234.983 175 234.983C173.429 234.983 171.897 234.489 170.621 233.572C169.345 232.655 168.39 231.36 167.89 229.87L163.94 218.04C163.203 215.833 161.963 213.827 160.318 212.182C158.673 210.537 156.667 209.297 154.46 208.56L142.63 204.61C141.14 204.11 139.845 203.155 138.928 201.879C138.011 200.603 137.517 199.071 137.517 197.5C137.517 195.929 138.011 194.397 138.928 193.121C139.845 191.845 141.14 190.89 142.63 190.39L154.46 186.44C158.93 184.94 162.45 181.44 163.94 176.96L167.89 165.13C168.387 163.637 169.341 162.339 170.617 161.418C171.893 160.497 173.427 160.001 175 160Z" fill="#864E99"/>
</g>
<g style="mix-blend-mode:screen" filter="url(#filter5_f_23009_240)">
<path fill-rule="evenodd" clip-rule="evenodd" d="M100 55C101.63 55.0003 103.215 55.5315 104.516 56.513C105.817 57.4945 106.762 58.873 107.21 60.44L115.34 88.9C117.09 95.0292 120.374 100.611 124.882 105.118C129.389 109.626 134.971 112.91 141.1 114.66L169.56 122.79C171.126 123.239 172.503 124.185 173.484 125.486C174.464 126.786 174.995 128.371 174.995 130C174.995 131.629 174.464 133.214 173.484 134.514C172.503 135.815 171.126 136.761 169.56 137.21L141.1 145.34C134.971 147.09 129.389 150.374 124.882 154.882C120.374 159.389 117.09 164.971 115.34 171.1L107.21 199.56C106.761 201.126 105.815 202.503 104.514 203.484C103.214 204.464 101.629 204.995 100 204.995C98.371 204.995 96.7864 204.464 95.4856 203.484C94.1848 202.503 93.2386 201.126 92.79 199.56L84.66 171.1C82.9095 164.971 79.6255 159.389 75.1182 154.882C70.611 150.374 65.0291 147.09 58.9 145.34L30.44 137.21C28.874 136.761 27.4967 135.815 26.5162 134.514C25.5357 133.214 25.0054 131.629 25.0054 130C25.0054 128.371 25.5357 126.786 26.5162 125.486C27.4967 124.185 28.874 123.239 30.44 122.79L58.9 114.66C65.0291 112.91 70.611 109.626 75.1182 105.118C79.6255 100.611 82.9095 95.0292 84.66 88.9L92.79 60.44C93.2376 58.873 94.1834 57.4945 95.4843 56.513C96.7851 55.5315 98.3703 55.0003 100 55ZM190 25C191.673 24.9991 193.299 25.5576 194.618 26.5869C195.937 27.6161 196.874 29.0569 197.28 30.68L199.86 41.04C202.22 50.44 209.56 57.78 218.96 60.14L229.32 62.72C230.946 63.1228 232.391 64.0586 233.423 65.378C234.456 66.6974 235.017 68.3246 235.017 70C235.017 71.6754 234.456 73.3026 233.423 74.622C232.391 75.9414 230.946 76.8772 229.32 77.28L218.96 79.86C209.56 82.22 202.22 89.56 199.86 98.96L197.28 109.32C196.877 110.946 195.941 112.391 194.622 113.423C193.303 114.456 191.675 115.017 190 115.017C188.325 115.017 186.697 114.456 185.378 113.423C184.059 112.391 183.123 110.946 182.72 109.32L180.14 98.96C178.986 94.3443 176.599 90.129 173.235 86.7648C169.871 83.4005 165.656 81.0139 161.04 79.86L150.68 77.28C149.054 76.8772 147.609 75.9414 146.577 74.622C145.544 73.3026 144.983 71.6754 144.983 70C144.983 68.3246 145.544 66.6974 146.577 65.378C147.609 64.0586 149.054 63.1228 150.68 62.72L161.04 60.14C165.656 58.9861 169.871 56.5995 173.235 53.2352C176.599 49.871 178.986 45.6557 180.14 41.04L182.72 30.68C183.126 29.0569 184.063 27.6161 185.382 26.5869C186.701 25.5576 188.327 24.9991 190 25ZM175 160C176.575 159.999 178.111 160.494 179.389 161.415C180.667 162.336 181.622 163.636 182.12 165.13L186.06 176.96C187.56 181.43 191.06 184.95 195.54 186.44L207.37 190.39C208.86 190.89 210.155 191.845 211.072 193.121C211.989 194.397 212.483 195.929 212.483 197.5C212.483 199.071 211.989 200.603 211.072 201.879C210.155 203.155 208.86 204.11 207.37 204.61L195.54 208.56C191.07 210.06 187.55 213.56 186.06 218.04L182.11 229.87C181.61 231.36 180.654 232.655 179.379 233.572C178.103 234.489 176.571 234.983 175 234.983C173.429 234.983 171.897 234.489 170.621 233.572C169.345 232.655 168.39 231.36 167.89 229.87L163.94 218.04C163.203 215.833 161.963 213.827 160.318 212.182C158.673 210.537 156.667 209.297 154.46 208.56L142.63 204.61C141.14 204.11 139.845 203.155 138.928 201.879C138.011 200.603 137.517 199.071 137.517 197.5C137.517 195.929 138.011 194.397 138.928 193.121C139.845 191.845 141.14 190.89 142.63 190.39L154.46 186.44C158.93 184.94 162.45 181.44 163.94 176.96L167.89 165.13C168.387 163.637 169.341 162.339 170.617 161.418C171.893 160.497 173.427 160.001 175 160Z" fill="#864E99"/>
</g>
<path fill-rule="evenodd" clip-rule="evenodd" d="M100 55C101.63 55.0003 103.215 55.5315 104.516 56.513C105.817 57.4945 106.762 58.873 107.21 60.44L115.34 88.9C117.09 95.0292 120.374 100.611 124.882 105.118C129.389 109.626 134.971 112.91 141.1 114.66L169.56 122.79C171.126 123.239 172.503 124.185 173.484 125.486C174.464 126.786 174.995 128.371 174.995 130C174.995 131.629 174.464 133.214 173.484 134.514C172.503 135.815 171.126 136.761 169.56 137.21L141.1 145.34C134.971 147.09 129.389 150.374 124.882 154.882C120.374 159.389 117.09 164.971 115.34 171.1L107.21 199.56C106.761 201.126 105.815 202.503 104.514 203.484C103.214 204.464 101.629 204.995 100 204.995C98.371 204.995 96.7864 204.464 95.4856 203.484C94.1848 202.503 93.2386 201.126 92.79 199.56L84.66 171.1C82.9095 164.971 79.6255 159.389 75.1182 154.882C70.611 150.374 65.0291 147.09 58.9 145.34L30.44 137.21C28.874 136.761 27.4967 135.815 26.5162 134.514C25.5357 133.214 25.0054 131.629 25.0054 130C25.0054 128.371 25.5357 126.786 26.5162 125.486C27.4967 124.185 28.874 123.239 30.44 122.79L58.9 114.66C65.0291 112.91 70.611 109.626 75.1182 105.118C79.6255 100.611 82.9095 95.0292 84.66 88.9L92.79 60.44C93.2376 58.873 94.1834 57.4945 95.4843 56.513C96.7851 55.5315 98.3703 55.0003 100 55ZM190 25C191.673 24.9991 193.299 25.5576 194.618 26.5869C195.937 27.6161 196.874 29.0569 197.28 30.68L199.86 41.04C202.22 50.44 209.56 57.78 218.96 60.14L229.32 62.72C230.946 63.1228 232.391 64.0586 233.423 65.378C234.456 66.6974 235.017 68.3246 235.017 70C235.017 71.6754 234.456 73.3026 233.423 74.622C232.391 75.9414 230.946 76.8772 229.32 77.28L218.96 79.86C209.56 82.22 202.22 89.56 199.86 98.96L197.28 109.32C196.877 110.946 195.941 112.391 194.622 113.423C193.303 114.456 191.675 115.017 190 115.017C188.325 115.017 186.697 114.456 185.378 113.423C184.059 112.391 183.123 110.946 182.72 109.32L180.14 98.96C178.986 94.3443 176.599 90.129 173.235 86.7648C169.871 83.4005 165.656 81.0139 161.04 79.86L150.68 77.28C149.054 76.8772 147.609 75.9414 146.577 74.622C145.544 73.3026 144.983 71.6754 144.983 70C144.983 68.3246 145.544 66.6974 146.577 65.378C147.609 64.0586 149.054 63.1228 150.68 62.72L161.04 60.14C165.656 58.9861 169.871 56.5995 173.235 53.2352C176.599 49.871 178.986 45.6557 180.14 41.04L182.72 30.68C183.126 29.0569 184.063 27.6161 185.382 26.5869C186.701 25.5576 188.327 24.9991 190 25ZM175 160C176.575 159.999 178.111 160.494 179.389 161.415C180.667 162.336 181.622 163.636 182.12 165.13L186.06 176.96C187.56 181.43 191.06 184.95 195.54 186.44L207.37 190.39C208.86 190.89 210.155 191.845 211.072 193.121C211.989 194.397 212.483 195.929 212.483 197.5C212.483 199.071 211.989 200.603 211.072 201.879C210.155 203.155 208.86 204.11 207.37 204.61L195.54 208.56C191.07 210.06 187.55 213.56 186.06 218.04L182.11 229.87C181.61 231.36 180.654 232.655 179.379 233.572C178.103 234.489 176.571 234.983 175 234.983C173.429 234.983 171.897 234.489 170.621 233.572C169.345 232.655 168.39 231.36 167.89 229.87L163.94 218.04C163.203 215.833 161.963 213.827 160.318 212.182C158.673 210.537 156.667 209.297 154.46 208.56L142.63 204.61C141.14 204.11 139.845 203.155 138.928 201.879C138.011 200.603 137.517 199.071 137.517 197.5C137.517 195.929 138.011 194.397 138.928 193.121C139.845 191.845 141.14 190.89 142.63 190.39L154.46 186.44C158.93 184.94 162.45 181.44 163.94 176.96L167.89 165.13C168.387 163.637 169.341 162.339 170.617 161.418C171.893 160.497 173.427 160.001 175 160Z" fill="white"/>
</g>
<defs>
<filter id="filter0_f_23009_240" x="79" y="-78" width="342" height="342" filterUnits="userSpaceOnUse" color-interpolation-filters="sRGB">
<feFlood flood-opacity="0" result="BackgroundImageFix"/>
<feBlend mode="normal" in="SourceGraphic" in2="BackgroundImageFix" result="shape"/>
<feGaussianBlur stdDeviation="50" result="effect1_foregroundBlur_23009_240"/>
</filter>
<filter id="filter1_f_23009_240" x="-121" y="64" width="342" height="342" filterUnits="userSpaceOnUse" color-interpolation-filters="sRGB">
<feFlood flood-opacity="0" result="BackgroundImageFix"/>
<feBlend mode="normal" in="SourceGraphic" in2="BackgroundImageFix" result="shape"/>
<feGaussianBlur stdDeviation="50" result="effect1_foregroundBlur_23009_240"/>
</filter>
<filter id="filter2_f_23009_240" x="-107" y="-107" width="374" height="374" filterUnits="userSpaceOnUse" color-interpolation-filters="sRGB">
<feFlood flood-opacity="0" result="BackgroundImageFix"/>
<feBlend mode="normal" in="SourceGraphic" in2="BackgroundImageFix" result="shape"/>
<feGaussianBlur stdDeviation="50" result="effect1_foregroundBlur_23009_240"/>
</filter>
<filter id="filter3_f_23009_240" x="-20" y="-23" width="374" height="374" filterUnits="userSpaceOnUse" color-interpolation-filters="sRGB">
<feFlood flood-opacity="0" result="BackgroundImageFix"/>
<feBlend mode="normal" in="SourceGraphic" in2="BackgroundImageFix" result="shape"/>
<feGaussianBlur stdDeviation="50" result="effect1_foregroundBlur_23009_240"/>
</filter>
<filter id="filter4_f_23009_240" x="5.00537" y="5" width="250.011" height="249.983" filterUnits="userSpaceOnUse" color-interpolation-filters="sRGB">
<feFlood flood-opacity="0" result="BackgroundImageFix"/>
<feBlend mode="normal" in="SourceGraphic" in2="BackgroundImageFix" result="shape"/>
<feGaussianBlur stdDeviation="10" result="effect1_foregroundBlur_23009_240"/>
</filter>
<filter id="filter5_f_23009_240" x="-34.9946" y="-35" width="330.011" height="329.983" filterUnits="userSpaceOnUse" color-interpolation-filters="sRGB">
<feFlood flood-opacity="0" result="BackgroundImageFix"/>
<feBlend mode="normal" in="SourceGraphic" in2="BackgroundImageFix" result="shape"/>
<feGaussianBlur stdDeviation="30" result="effect1_foregroundBlur_23009_240"/>
</filter>
<clipPath id="clip0_23009_240">
<rect width="260" height="260" fill="white"/>
</clipPath>
</defs>
</svg>
