<svg
  xmlns="http://www.w3.org/2000/svg"
  fill="currentColor"
  viewBox="0 0 1334 839"
>
  <path
    d="m575.653.293 3.894-.04c.066 15.68 12.586 29.24 28.36 29.947 2.346-.547 2.08 2.32 1.413 3.547-9.507.08-18.813 4.906-24.213 12.76-3.734 5.213-5.494 11.453-5.547 17.826-1.293.04-2.6.04-3.893-.013.386-16.6-13.427-30.68-30.027-30.627a31.329 31.329 0 0 1 .027-3.36c14.48.027 27.333-10.88 29.586-25.186.214-1.614.347-3.227.4-4.854Zm23.027 60.334c12.533 1.426 22.707 10.6 29.013 21.026 7.587 12.64 15.92 26.347 29.334 33.494 14.226 7.626 32.653 6.986 48.333 6.386 7.907-1.093 16.04-.04 23.4 3.094 10.84 4.586 19.627 13.386 26.52 22.733 10.2 13.893 17.64 30.387 24.187 46.267 4.946 11.746 8.76 23.013 15.786 33.746 6.56 10.16 16.147 20.574 28.72 22.414 12.587 1.573 21.96-5.494 30.734-13.414-7.094 9.48-17.334 17.987-29.36 19.774-7.96 1-15.774-1.4-22.387-5.774-9.627-6.266-17.293-16.2-23.36-25.826-7.547-13.107-13.68-26.987-21.48-39.974-8.027-13.52-17.987-27.88-30.853-37.2-8.36-6.066-18.134-9.853-28.6-9.346-13.867.88-28.907 5.346-42.667 3.933-10.813-1.04-19.8-7.24-26.293-15.693-7.147-9.574-14.454-20.587-24.387-27.6-3.76-2.48-7.64-4.64-12.253-2.987-2.267-10.107-5.227-20.267-7.307-30.387 2.267-4.666 8.4-5.08 12.92-4.666ZM575.56 68.2c1.36-.147 2.747-.12 4.16.067 2.307 9.64 4.667 19.293 6.88 28.96l-.16 1.186c-5.907 3.494-12.787 3.614-18.293-.613 2.533-9.84 4.946-19.733 7.413-29.6Zm-10.533 41.16c-.307 1.8-.627 3.56-1.32 5.267-6.467 18.08-16.84 35.2-27.347 51.213-14.507 21.827-30.907 42.733-47.76 62.787-25.08 29.68-51.747 58.026-79.227 85.493-11.346-2.933-22.866-3.36-34.52-2.36 18.64-14.387 36.76-29.507 53.854-45.707 28.906-28.013 56.72-57.173 83.053-87.613 18.813-22.053 37.467-44.747 53.267-69.08Zm11.24 1.707c.453 3.466.586 6.8.386 10.28-.666 34.026-3.733 68.253-8.52 101.933-9.48 56.04-16.52 112.373-23.2 168.8-20.933 5.653-41 15.333-59.466 26.627 27.933-56.947 50-116.92 65.346-178.467 5.08-21.293 9.334-42.8 13.614-64.267 4-21.6 8.613-43.16 11.84-64.906Zm12.453 1.04.48 1c5.573 17.28 11.533 34.36 18.587 51.133 22.386 53.547 51.16 104.8 86.426 150.933 6.574 8.52 13.24 16.96 19.894 25.427 55.066 69.24 110.986 137.853 166.906 206.413-12.413-5.52-26.24-9.386-39.88-9.453-27.466-34.76-54.36-70.24-80.973-105.667-29.813-40.16-59.653-80.6-86.653-122.72-23.694-37.813-44.107-78.106-60.614-119.56-9.973-25.466-18.36-50.773-24.173-77.506Zm325.52 64.32 1.987.546c.133 11.08 9.146 19.734 20.133 19.987l.013 2.053c-11.04.28-20.253 9.107-20.106 20.307l-2.147.653c-1.093-2.946-.787-6.173-2.373-9.066-3.24-7.254-10.44-11.614-18.294-11.867-.026-.693-.026-1.4.014-2.107 9.04-.2 17.04-6.106 19.386-14.906.574-1.8.24-4.107 1.387-5.6Zm-322.413 9.44c1.8 13.253 4.8 26.4 7.52 39.493 5.573 25.613 11.933 51.04 19.213 76.227 12.107 41.4 26.507 83.093 46.28 121.506-16.093-11.16-33.907-19.573-52.08-26.693-5.813-29.987-9.08-60.533-12.867-90.84-3.48-32.027-6.066-64.08-7.546-96.267-.174-7.733-1.36-15.733-.52-23.426Z"
  />
  <path
    d="M647.227 207.6c24.026 25.44 49.373 49.08 75.64 72.187C789.6 337.893 861.653 390.213 938.013 434.96c-8.813 2.853-17.2 6.773-24.706 12.227-73.334-42.294-144.2-93.654-202.387-155.44-23.747-25.6-46.813-53.48-63.693-84.147Zm429.503 44.014 2.5.013c.13 10.96 9.02 20.107 20.06 20.147.14.693.23 1.4.28 2.12-11.37.4-20.28 9.106-20.32 20.6-.84.026-1.69.026-2.53 0-.03-11.48-8.95-20.214-20.32-20.6.05-.72.16-1.427.31-2.12 11.01-.027 19.93-9.214 20.02-20.16Zm-83.89 35.773c.08 11.173 9.12 19.96 20.23 20.186 0 .707-.03 1.414-.1 2.107-11.17.12-20.277 9.32-20.13 20.507-.867.04-1.72.04-2.56.013.04-11.267-8.92-20.32-20.16-20.533l-.093-2.08c11.173-.32 20.053-8.987 20.266-20.24a31.722 31.722 0 0 1 2.547.04Zm-584.893 41.066c19.986 4.107 38.04 16.48 47.386 34.867 7.947 15.347 8.787 35.52-.293 50.573-6.733 11.08-18.187 18.014-30.387 21.6-4.786 1.307-10.12 2.947-15.053 2.187 17.48-3.107 31.88-17.64 35.267-35.027 2.546-11.64.013-24.333-6.614-34.213-8.12-12.253-22.173-20.107-36.92-20.16-19.72-.293-38.6 6.227-55.28 16.453-21.92 13.427-40.48 33.054-55.92 53.427-2.96 5.04-3.093 12.107-3.253 17.84-.04 38.667-.013 77.333-.013 116 .053 4.987.16 10.867 3.546 14.88 3.16 3.573 7.72 4.507 12.254 4.947 4.16.6 8.053.973 11.88-1.094 4.773-2.466 6.973-7.68 8.986-12.346 14.867-37.254 29.614-74.747 44.48-111.987 2.4-.093 4.814-.04 7.214-.053 14.76 36.44 29.306 74.053 43.88 110.706 1.893 4.72 3.76 10.067 8.173 13.04 3.947 2.614 8.493 2.454 12.92 2.8.013 1.627.013 3.254-.027 4.88-19.2.08-38.44.094-57.64 0a130.62 130.62 0 0 1-.026-4.6c4.013-1.16 8.933.214 12.453-3.613 1.787-2.613.707-6.947-.16-9.76-2.04-5.827-4.107-11.667-6.4-17.387-16.28-.013-32.56.014-48.84-.013-1.813 3.573-3.027 7.52-4.56 11.24-1.667 4.187-4.213 10.253-1.987 14.587 3.08 4.493 9.987 4.373 14.814 4.613.026 1.64.026 3.293.013 4.947-37.507.08-75.413.213-112.893.066-.014-1.84.013-3.68.04-5.52 5.48-.16 13.12-.093 17.533-3.853 3.84-3.573 4.053-10.2 4.133-15.107 0-27.306.107-54.96-.053-82.253-20.587 35.96-40.747 72.547-63.76 107.027-9.093 13.506-18.653 26.293-31.267 36.773-13.813 11.8-30.32 20.24-48.213 23.68-23.053 4.6-46.947.387-68.2-9.173C25.813 620.6 9.04 606.16 0 586.64v-.907c.6-1.946 1.16-3.893 1.867-5.8 12.386 19.72 32.346 34.187 55.48 38.134 13.066 2.386 27.04 1.266 40.013-1.307 16.36-3.213 31.707-10.733 44.067-21.96 17.28-15.307 30.36-36.613 42.253-56.213-22.08-31.2-44.707-63.24-66.76-94.334.053 36.8-.04 73.614.053 110.414.147 4.426.587 10.4 4.04 13.64 4.467 4 12.48 3.84 18.12 4.026.027 1.854.04 3.707-.013 5.56-19.573.014-39.16.027-58.733-.013a192.98 192.98 0 0 1 .013-5.56c6.227-.16 14.707-.067 19.827-4.093 4.586-3.774 4.786-9.4 5.266-14.867.04-35.56.014-71.133.027-106.693-.053-6.24.32-12.24-.987-18.414-.853-3.48-3.04-6.506-6.413-7.88-5.213-2.4-12.107-2.306-17.733-2.493-.027-2.08.04-4.16-.04-6.24 17.08-.453 37.4-.053 54.88-.213 22.506 31.346 44.8 63.266 67.32 94.586 27.506-48.413 56.426-99.68 97.386-138.106 20.84-19.494 45.494-35.48 74.12-40.067 11.374-1.667 22.614-1.853 33.894.613Zm-45.267 152.92c-6.96 17.974-13.707 36.04-20.813 53.96 14.666.12 29.466.147 44.12-.013-7.507-19.187-14.267-39.04-21.88-58.133-.44 1.4-.907 2.8-1.427 4.186Z"
  />
  <path
    d="M486.68 447.414c20.613-3.134 42.907 1.066 60.693 12.08.734 9.56.24 23.173.56 33.306-1.64.08-3.266.094-4.893.027-.08-9.733-2.333-19.48-9.027-26.853-7.8-8.667-20.04-11.987-31.346-12.147-11.227-.427-22.36 3.867-30.067 12.12-10.347 10.8-14.533 26.133-15.56 40.707-.907 15.546 1.427 32.96 9.973 46.306 6.16 9.827 16 17.067 27.614 18.707 12.52 1.907 26.106-.507 35.106-10.053-.546-8.987 1.187-18.947-1.28-27.6-3.053-7.04-14.013-6.48-20.333-6.76-.027-1.654-.027-3.307.013-4.974 19.627-.053 39.307-.026 58.934-.013.04 1.653.053 3.32.026 4.973-3.866.16-8.546.134-11.573 2.96-2.027 2.107-2.547 5.667-2.613 8.467-.227 7.853 0 15.72-.134 23.56-17.32 12.573-39.4 19.107-60.786 17.053-17.094-1.533-34.307-8.333-45.64-21.626-10.36-12.054-14.387-27.347-14.667-42.987-.24-15.493 3.053-31.2 12.6-43.733 10.293-13.52 25.867-20.947 42.4-23.52Zm210.653-1.001c17.307-.44 35.24 3.8 50.054 12.934l.48.666c-.027 10.92.493 21.814.413 32.8a78.315 78.315 0 0 1-5.013.027c-.04-10.067-2.507-20.293-9.8-27.64-8.374-8.787-21.734-11.707-33.467-11.347-11.653.28-22.587 5.88-29.773 15.027-10.107 12.72-13.307 29.907-13.16 45.787.346 15.533 4.08 32.346 14.68 44.253 7.453 8.573 18.253 13.293 29.586 13.36 11.534-.067 23.387-2.773 31.867-11.08 7.52-7.627 9.96-17.64 10.12-28.08 1.653-.027 3.293-.013 4.933.04.067 11.24-.28 22.067-.506 33.267-16.707 10.533-37.534 14.72-57.08 12.706-17.16-1.933-33.64-8.786-44.814-22.36-10.266-12.413-13.733-27.626-14.013-43.413.187-15.56 3.373-30.547 13.147-43.027 12.573-16.093 32.466-23.106 52.346-23.92Zm260.04.427c21.134-2.387 44.697 4.56 59.557 20.227 10.68 11.026 16.18 25.733 17.02 40.933.96 16.173-2.52 32.427-12.39 45.533-12.07 16.294-32.307 25.107-52.24 26.014-20.053 1.066-41.107-5.667-55.293-20.227-11.36-11.573-17.027-27.24-17.454-43.32-.573-15.067 2.854-30.027 11.707-42.4 11.373-15.84 29.92-24.987 49.093-26.76Zm50.467 79.827c2.8-17.707.35-37.8-9.347-53.187-6.533-10.373-16.706-18.133-29.146-19.44-11.414-1.347-22.814 3.013-30.72 11.253-10.627 10.667-15.734 26.64-16.72 41.374-1.214 17.133 2.373 36.413 13.24 50.146 7.2 9.414 18.2 15.494 30.186 15.467 10.014-.053 19.334-4.16 26.374-11.227 9.083-9.026 14.253-21.893 16.133-34.386ZM568.933 448.28c19.734.053 39.507-.08 59.227.067.053 1.56.067 3.12.027 4.693-5.147.773-11.28-.053-15.347 3.813-2.64 2.867-2.627 7.494-2.667 11.147 0 30.213-.026 60.453.014 90.667.093 3.893.293 8.893 3.773 11.4 3.853 2.813 9.773 2.453 14.24 2.84.013 1.626 0 3.253-.027 4.866-19.746.107-39.52.04-59.266.04a123.05 123.05 0 0 1 0-4.973c4.973-.267 11.106.053 15.093-3.493 2.52-2.68 2.76-7.187 2.88-10.667.027-30.68.027-61.36 0-92.027-.213-4.08-.36-8.413-4.067-10.92-4.373-2.6-8.96-2.013-13.92-2.653a72.331 72.331 0 0 1 .04-4.8Zm471.617.027c32.93-.027 66.01-.054 98.94.013.14 9.467.75 18.64.92 28.08-1.65.053-3.32.053-5.01 0-.96-5.427-2-12.426-5.83-16.64-3.33-3.68-8.92-4.08-13.57-4.2-11.39-.16-22.79-.027-34.17-.08-.06 33.773-.03 68.067-.02 101.88.08 4.347.06 8.8 3.58 11.934 4.98 3.56 12.18 3.306 18.04 3.533.04 1.666.04 3.333-.04 5h-62.83c-.09-1.667-.08-3.334-.04-5 4.97-.24 10.41.026 14.63-3.094 3.21-2.88 3.12-7.066 3.26-11.04.04-30.226.02-60.466.02-90.693-.16-4.36.12-9.093-3.7-12.053-4.62-3-9.1-2.067-14.25-2.907-.01-1.587.01-3.16.07-4.733Z"
  />
  <path
    d="M963.36 480.973h3.893c.067 7.76 3 15.134 8.347 20.76 5.773 6.094 13.533 9.094 21.84 9.494.013 1 0 2-.04 3-6.64.666-12.813 2.106-18.147 6.333-7.68 5.773-12.08 14.84-11.986 24.453-1.294.054-2.6.054-3.92.014.04-8.574-3.4-16.827-9.774-22.614-5.653-5.36-12.72-7.56-20.36-8.146a39.542 39.542 0 0 1 0-3.08c14.92-.254 27.814-11.2 29.827-26.08.12-1.374.227-2.76.32-4.134Zm147.17 8.227 1.66-.573c1.76.826 1.05 4.133 1.76 5.8 2.52 8.786 10.52 14.573 19.6 14.706.22 3.8-3.16 1.56-5.55 2.907-6.67 1.787-11.92 6.96-13.96 13.533-.75 2.067-.29 4.827-1.61 6.56l-1.94-.693c.08-11.36-9.16-19.88-20.22-20.347-.64-3.453 3.02-1.68 5.1-2.68 7.34-1.853 13.18-7.88 14.71-15.306.2-1.294.35-2.6.45-3.907Zm28.04 40.453c33.99 12.56 68.48 23.747 103.4 33.374 20.23 5.386 40.6 10.853 61.22 14.466-3.8.587-7.38.107-11.2-.013-55.35-3.547-110.31-14.947-162.98-32.24.51-5.973 2.44-14.507 9.56-15.587Zm-301.023 23.64c16.786-.893 33.373 4.814 47.453 13.694 15.013 9.52 27.52 22.28 38.653 36.026 12.04 14.867 22.64 31.294 32.267 47.814 16.787 28.653 33.24 57.48 49.91 86.2 17.93-29.4 35.77-59.054 53.52-88.574 12.44-.666 27.48-.146 40.25-.266.05 1.613.07 3.226.01 4.826-4.58.16-10.38.24-14.37 2.814-4.36 3.026-4.43 8.72-4.51 13.506-.02 28.894-.01 57.787-.01 86.667.08 4.547.01 9.747 3.39 13.253 4.3 3.534 10.26 3.28 15.52 3.507.02 1.653.02 3.32-.02 4.973-19.64.067-39.36.027-59.01.027a69.474 69.474 0 0 1-.04-5c4.56-.213 10.6.067 14.09-3.413 2.67-3.28 2.27-6.72 2.8-10.627.11-28.387-.04-56.8.08-85.187-15.25 24.734-29.97 49.854-45.13 74.654 8.76 14.946 17.65 29.853 26.84 44.533 12.36 16.333 30.52 28.6 51.44 29.533 20.65 1.28 41.4-8.626 53.4-25.466 1.27 1.386 2.44 2.84 3.6 4.32-11.43 22.253-34.53 37.12-59.68 37.346-19.03.854-38.16-5.413-52.83-17.586-7.88-6.227-14.5-14.387-19.94-22.774-26.843-40.066-51.19-80.56-75.91-121.866.04 27.053 0 54.106.027 81.146.093 4.067.026 9.067 3.093 12.147 3.507 3.227 9.667 2.96 14.093 3.133a56.655 56.655 0 0 1-.04 5.014c-15.146-.014-30.32.04-45.453-.027a103.07 103.07 0 0 1-.04-4.973c4.893-.174 10.627 0 14.92-2.774 3.627-2.52 4.293-7.146 4.427-11.24.066-29.333 0-58.68.026-88.013.24-5.8-1.84-11.773-4.16-17.013-11.16-19.974-24.64-38.827-40.44-55.4-9.866-10.054-21.6-20-34.826-25.214-9.494-3.813-19.694-3.866-29.6-1.813-9.134 1.853-17.68 6.44-21.854 15.16-3.706 7.973-3.693 18.733 1.374 26.133 3.986 5.547 10.306 7.654 16.893 8.147.067.133.04.307-.067.533-3.866 1.467-8.813.68-12.64-.733-8.333-3.68-14.586-11.493-16.28-20.467-1.72-9.973.347-20.36 7-28.173 10.147-12.28 26.28-17.693 41.774-18.507ZM240 606.333c19.08 1.187 39.12 6.534 55.16 17.16.093 14.147.267 28.4.453 42.547-2.013-.093-4.72.44-6.546-.267.186-13.96-3.947-28.026-14.694-37.48-10.773-9.52-25.693-12.613-39.706-12.573-14.76.147-28.854 6.6-38.347 17.933-12.36 14.454-17.347 34.387-18.107 53.014-.813 20.133 2.774 42.413 14.56 59.253 8.387 12.253 21.72 20.64 36.587 22.133 15.573 1.44 33.973-1.906 45.8-12.893 10.307-9.667 14.053-23.293 13.947-37.093 1.786.226 5.2-.64 6.546.386-.28 14-.386 28.014-.466 42.014l-.534.6c-15.4 9.786-33.866 15.026-51.96 16.573-20.12 1.413-41.24-2.067-58.853-12.213-13.773-7.814-24.627-19.907-30.853-34.454-7.64-17.933-8.8-38.8-5.774-57.88 3.014-18.44 11.76-35.613 26.48-47.413 18.267-14.907 43.134-20.52 66.307-19.347Zm470.693 39.787c15.627-2.973 33-1.453 47.494 5.307-.574 7.8-.947 15.72-1.627 23.493-1.613.013-3.24.013-4.853-.027.066-6.866-1.894-13.44-7.347-17.92-8.053-6.466-20.547-6.88-29.413-1.853-6.134 3.4-10.04 9.853-10.054 16.88-.32 7.627 4.374 13.813 9.934 18.48 11.453 9.373 25.733 15.333 37.106 25.6 4.027 3.707 7.454 7.933 9.76 12.92 4.467 9.92 3.427 22.467-2.4 31.627-5.76 9.066-15.72 13.986-25.973 16.08-18.013 3.373-36.88 1.066-52.52-8.867-.48-7.72.613-17.653.787-25.627 1.706-.066 3.4-.04 5.093.08.36 9.227 3.373 18.347 11.32 23.734 7.027 4.626 16.533 5.733 24.707 4.653 10.386-1.56 17.866-10.973 17.84-21.347.186-8.08-4.067-14.746-9.88-19.986-12.52-11.28-31.147-18.134-42.094-31.28-9.133-10.44-9.893-26.8-1.946-38.094 5.786-7.933 14.706-11.866 24.066-13.853Z"
  />
  <path
    d="M1168.19 644.76c2.49-.16 5.1-.186 7.58.027 14.64 37.467 29.58 74.893 44.28 112.347 1.6 3.76 3.39 8.16 6.71 10.733 3.99 2.92 8.88 3.147 13.63 3.24-.16 1.427.48 3.933-.39 5.04-18.99.027-38.01.027-57 0a49.23 49.23 0 0 1-.15-5c3.86-.2 9.04-.093 12.07-2.933 2.53-3.267 1.04-6.667.12-10.214-2.03-5.773-4.08-11.586-6.37-17.266-16.34.04-32.68-.014-49.02.013-2.2 5.493-4.45 11.013-6.37 16.6-1.05 3.613-1.84 7.947 1.35 10.747 3.64 2.8 9.18 2.88 13.56 3.066a74.58 74.58 0 0 1-.06 4.96c-14.88.054-29.85.094-44.72-.026-.08-1.654-.1-3.32-.06-4.974 4.16-.093 9.29-.386 12.8-2.92 4.28-2.92 6.41-8.626 8.34-13.24 14.58-36.733 29.16-73.453 43.7-110.2Zm-26.07 88.92c14.69.027 29.4.027 44.09 0-7.18-19.16-14.29-38.373-21.38-57.56l-.75.44c-7.27 19.054-14.51 38.134-21.96 57.12Zm137.89-87.666c15.43-2.8 32.71-1.32 46.96 5.48-.74 7.786-.97 15.56-1.52 23.373-1.65.053-3.32.08-4.97.053.08-7.053-2.07-13.853-7.81-18.293-8.98-6.773-22.84-6.48-31.72.333-6.54 5-8.9 14.187-6.23 21.853 2.49 6.987 9.37 12.44 15.32 16.48 11.95 8.12 27.01 15.147 36.05 26.641 6.31 7.72 8.34 17.733 6.44 27.44-1.82 9.693-8.08 17.799-16.73 22.439-11.59 6.307-25.61 7.041-38.49 5.801-9.54-1.174-20.76-4.521-28.24-10.627.88-8.187.73-16.52 1.24-24.747 1.68-.08 3.36-.08 5.02-.027.42 6.454 1.79 12.707 5.54 18.094 3.98 5.786 10.93 9.173 17.77 10.107 6.67 1.12 14.09 1.213 20.09-2.347 7.04-3.947 11-12.12 10.47-20.08-.05-7.04-3.92-12.973-8.79-17.72-12.62-11.933-32.5-19.027-43.42-32.6-8.91-10.547-9.44-26.907-1.36-38.054 5.62-7.693 15.28-11.813 24.38-13.599Zm-971.597.479c19.494-.053 39.04-.026 58.534-.013.093 1.667.093 3.333.053 4.987-4.453.186-10.213.12-14 2.853-3.413 2.8-3.213 6.987-3.373 11.013-.054 30.227-.027 60.44-.014 90.667.16 4.253-.173 9.293 3.48 12.28 3.654 2.747 9.547 2.72 13.907 2.827.04 1.68.027 3.36-.053 5.04-19.48.026-39.027.026-58.507 0-.12-1.68-.16-3.347-.12-5.027 4.493-.16 10.707-.067 14.427-3 3.533-2.933 3.386-7.92 3.48-12.093.04-29.787.026-59.574.013-89.374-.12-4.266.227-9.186-3.427-12.186-3.773-2.907-9.986-2.774-14.506-3.014a68.42 68.42 0 0 1 .106-4.96Zm102.814-.026h58.533c.08 1.666.093 3.346.053 5.013-4.706.173-10.226.12-14.333 2.8-3.413 2.547-3.4 7.173-3.68 11.027-.013 30.68-.04 61.373.013 92.053.334 4 .36 8.36 3.827 11.014 3.893 2.626 9.653 2.613 14.173 2.733a90.73 90.73 0 0 1-.013 4.666l-.533.374c-19.307.013-38.707.04-58.014-.014a57.425 57.425 0 0 1-.093-5.013c4.587-.146 10.373-.093 14.187-3.067 3.186-2.986 3.106-8.026 3.173-12.053.027-30.227.053-60.453 0-90.667-.08-4.106-.093-8.733-3.84-11.32-3.693-2.4-9.293-2.36-13.533-2.56-.027-1.653 0-3.32.08-4.986Zm71.733.013c18.56-.013 37.16-.027 55.733 0 14.134.733 29.654 2.947 40.347 13.147 9.133 8.84 11.267 23.853 4.733 34.8-5.706 9.893-16.053 16.426-26.36 20.746l-.013.854c12.907 15.04 25.84 30.16 38.693 45.24 2.987 3.36 6.227 6.373 10.334 8.306 5.52 2.28 12.2 1.707 17.786-.04 5.307-2.173 5.787-7.08 5.907-12.146.04-30.694.027-61.4.013-92.107-.106-4.2-.186-8.76-4.12-11.307-3.8-2.36-9.466-2.32-13.786-2.52a68.937 68.937 0 0 1 .106-4.973c19.507-.053 39.054.027 58.574-.027l.48.387c.053 1.547.066 3.093.04 4.627-4.52.2-10.547.133-14.374 2.88-3.493 2.786-3.373 6.906-3.506 10.96 0 30.68-.014 61.36.013 92.026.16 4.054.147 8.12 3.56 10.907 3.76 2.8 9.827 2.72 14.293 2.88a52.98 52.98 0 0 1-.08 5.053c-31.733-.04-63.6.027-95.333-.04-4.067-7.68-8.933-14.92-14.627-21.493a19177.117 19177.117 0 0 0-26.066-31.533c-3.774-.24-7.64-.134-11.427-.027-.053 10.987-.027 21.987-.013 32.973.6 4.6-.08 8.92 3.986 12.134 4.2 2.946 10.787 2.746 15.694 2.933a52.406 52.406 0 0 1-.094 5.013c-20.12.054-40.346.027-60.48.027a22.314 22.314 0 0 1-.44-4.96c5-.32 10.48-.133 14.76-3.187 3.374-3.146 3.214-7.746 3.334-12.013.026-29.773.026-59.56 0-89.333-.134-4.28.266-8.947-3.227-12.067-3.973-3.04-10.107-2.893-14.827-3.187-.133-1.706 0-3.36.387-4.933Zm40.92 7.36c-.053 20.84-.027 41.733-.013 62.573 3.56.054 7.2.214 10.746-.066 9-3.4 17-8.547 22.427-16.654 5.893-8.76 7.187-20.88 3.307-30.666-3.254-7.48-10.174-12-17.92-13.814-5.934-1.573-12.454-1.573-18.547-1.373Zm251.387-7.04.533-.347c39.92.04 79.853 0 119.787.014.32 9.546.88 18.706.933 28.293-1.8.227-3.48.08-5.053-.44-.88-5.347-2.08-11.907-5.68-16.16-3.64-3.88-8.814-4.16-13.787-4.333-8.32-.12-16.653-.094-24.96-.027.053 34.507-.04 69.067.053 103.573.12 4.294.667 8.494 4.64 10.947 4.854 2.68 11.534 2.653 16.934 2.787.04 1.653.013 3.306-.08 4.96-21.627.226-44.187.04-65.92.093-.92-1.04-.24-3.653-.414-5.053 5.36-.134 11.88-.12 16.747-2.667 4.093-2.36 4.733-6.733 4.787-11.067.106-34.493-.027-69.066.066-103.573-8.386-.067-16.8-.093-25.186.04-4.974.173-10.134.52-13.667 4.507-3.707 4.506-4.507 10.746-5.72 16.253-1.6.24-3.227.28-4.907.16.147-9.267.707-18.627.894-27.96Z"
  />
  <path
    d="M387.173 679.293a49.01 49.01 0 0 1 3.947 0c-.147 16.134 13.587 30.187 29.8 29.92l.307 3.427c-5.96.227-11.76 1.8-16.72 5.187-8.48 5.52-13.507 15.373-13.387 25.466-1.307.04-2.627.04-3.947 0 .027-6.786-2.066-13.453-6.28-18.813-5.64-7.44-14.52-11.653-23.813-11.8l.053-3.427c16.374.267 30.12-13.653 30.04-29.96Z"
  />
</svg>